<svg width="48" height="45" viewBox="0 0 48 45" fill="none" xmlns="http://www.w3.org/2000/svg">
<g id="logo">
<path d="M29.964 13.7516L29.9575 13.7486L29.9376 13.7397C29.9248 13.7309 29.9161 13.7243 29.9127 13.7204L29.964 13.7516Z" fill="#01746D"/>
<path d="M29.964 13.7516C29.9678 13.754 29.9682 13.7543 29.964 13.7516V13.7516Z" fill="#01746D"/>
<path d="M20.0019 42.3208C20.0218 42.5962 20.2614 42.8034 20.537 42.7835C20.799 42.7645 20.9992 42.5473 21.0013 42.2894C21.0014 42.2998 21.0019 42.3103 21.0026 42.3208C21.0225 42.5962 21.2621 42.8034 21.5378 42.7835C21.8134 42.7635 22.0207 42.5241 22.0007 42.2487C21.9808 41.9733 21.7412 41.7661 21.4656 41.7861C21.2037 41.805 21.0034 42.0222 21.0013 42.2801C21.0012 42.2697 21.0008 42.2592 21 42.2487C20.9811 41.9869 20.7637 41.7868 20.5055 41.7847C20.516 41.7846 20.5265 41.7842 20.537 41.7835C20.8127 41.7635 21.0199 41.5241 21 41.2487C20.9801 40.9733 20.7405 40.7661 20.4649 40.7861C20.1892 40.806 19.982 41.0454 20.0019 41.3208C20.0208 41.5826 20.2382 41.7827 20.4964 41.7848C20.486 41.7849 20.4754 41.7853 20.4649 41.7861C20.1892 41.806 19.982 42.0454 20.0019 42.3208Z" fill="#01746D"/>
<path d="M22.0034 41.8208C22.0233 42.0962 22.2629 42.3034 22.5385 42.2835C22.8141 42.2635 23.0214 42.0241 23.0015 41.7487C22.9816 41.4733 22.742 41.2661 22.4663 41.2861C22.1907 41.306 21.9834 41.5454 22.0034 41.8208Z" fill="#01746D"/>
<path d="M20.0367 40.2835C19.761 40.3034 19.5214 40.0962 19.5015 39.8208C19.4816 39.5454 19.6889 39.306 19.9645 39.2861C20.2401 39.2661 20.4797 39.4733 20.4996 39.7487C20.5196 40.0241 20.3123 40.2635 20.0367 40.2835Z" fill="#01746D"/>
<path d="M18.0661 39.5348C18.0293 39.4714 18.0061 39.3988 18.0004 39.3208C17.9805 39.0454 18.1878 38.806 18.4634 38.7861C18.739 38.7661 18.9786 38.9733 18.9985 39.2487C19.0061 39.3524 18.9813 39.451 18.9329 39.5347C18.9696 39.5981 18.9929 39.6707 18.9985 39.7487C19.0185 40.0241 18.8112 40.2635 18.5356 40.2835C18.2599 40.3034 18.0203 40.0962 18.0004 39.8208C17.9929 39.7171 18.0176 39.6185 18.0661 39.5348Z" fill="#01746D"/>
<path fill-rule="evenodd" clip-rule="evenodd" d="M12.5092 36C12.5092 38.8971 13.9596 41.4557 16.1745 42.9902C16.301 43.0713 16.3621 43.1103 16.3891 43.1275C16.3739 43.1182 16.3802 43.1235 16.5698 43.2482C17.8635 44.0422 19.3859 44.5 21.0154 44.5H38.5282C43.2261 44.5 47.0345 40.6944 47.0345 36V9C47.0345 4.30558 43.2261 0.5 38.5282 0.5H8.50624C7.78813 0.5 7.09081 0.58892 6.42469 0.756342C6.39477 0.761162 6.36513 0.768732 6.33613 0.77911C2.68945 1.73775 0 5.05503 0 9V22C0 26.6944 3.80837 30.5 8.50624 30.5H12.5092V36ZM16.3891 43.1275C16.3949 43.131 16.4038 43.1367 16.4068 43.1386C16.4087 43.1399 16.4082 43.1396 16.4027 43.1361L16.3891 43.1275ZM8.50624 1.5C7.89266 1.5 7.29628 1.57357 6.72545 1.71237C6.11407 2.21189 5.15881 3.4416 4.3663 5.58062C3.54385 7.80043 2.90852 10.9703 3.01359 15.2377C3.11915 19.5248 3.66862 22.7163 4.30523 24.9564C4.94712 27.2151 5.66567 28.4652 6.07548 28.9123C6.13595 28.9782 6.17537 29.056 6.19411 29.1374C6.92243 29.3728 7.69947 29.5 8.50624 29.5H12.5092V21C12.5092 16.3056 16.3175 12.5 21.0154 12.5H25.5187C27.0598 12.5 29.6465 13.6101 29.9376 13.7397C29.9744 13.765 30.045 13.8081 30.1194 13.8536C30.2385 13.9264 30.3675 14.0052 30.3837 14.0266C32.585 15.5629 34.0249 18.1134 34.0249 21V22C34.0249 26.6944 30.2166 30.5 25.5187 30.5H15.5586C15.619 32.5399 15.7292 34.301 15.8663 35.8022C15.8969 35.7939 15.9288 35.7884 15.9616 35.7861C16.2372 35.7661 16.4768 35.9733 16.4967 36.2487C16.5166 36.5241 16.3094 36.7635 16.0337 36.7835C16.01 36.7852 15.9866 36.7852 15.9635 36.7836C15.9891 37.0233 16.0154 37.2553 16.0422 37.4797C16.1313 37.3415 16.2866 37.25 16.4632 37.25C16.7396 37.25 16.9636 37.4739 16.9636 37.75C16.9636 38.0261 16.7396 38.25 16.4632 38.25C16.3315 38.25 16.2116 38.1991 16.1222 38.1159C16.1356 38.2169 16.1491 38.3162 16.1626 38.4137C16.2425 38.3415 16.3462 38.2944 16.4619 38.2861C16.7376 38.2661 16.9772 38.4733 16.9971 38.7487C16.9978 38.7593 16.9983 38.7697 16.9984 38.7802C17.0005 38.5222 17.2007 38.305 17.4627 38.2861C17.4732 38.2853 17.4837 38.2849 17.4942 38.2848C17.236 38.2827 17.0186 38.0826 16.9997 37.8208C16.9798 37.5454 17.187 37.306 17.4627 37.2861C17.7383 37.2661 17.9779 37.4733 17.9978 37.7487C18.0177 38.0241 17.8105 38.2635 17.5348 38.2835L17.5236 38.2841C17.5168 38.2845 17.51 38.2847 17.5033 38.2847C17.7615 38.2868 17.9789 38.4869 17.9978 38.7487C18.0177 39.0241 17.8105 39.2635 17.5348 39.2835C17.5227 39.2843 17.5107 39.2848 17.4988 39.2848C17.499 39.5447 17.298 39.7644 17.0345 39.7835C16.7588 39.8034 16.5192 39.5962 16.4993 39.3208L16.4987 39.3111L16.4982 39.2993C16.4981 39.2945 16.498 39.2896 16.498 39.2848C16.4223 39.2848 16.35 39.2679 16.285 39.2373C16.3618 39.7198 16.4396 40.1487 16.5159 40.5264C16.5981 40.3625 16.7677 40.25 16.9636 40.25C16.9636 39.9739 17.1876 39.75 17.464 39.75C17.7403 39.75 17.9643 39.9739 17.9643 40.25C17.9643 40.2621 17.9639 40.2741 17.963 40.2861C18.2001 40.2689 18.4105 40.4197 18.4774 40.6375C18.5285 40.4155 18.7274 40.25 18.9651 40.25C19.0753 40.25 19.1773 40.2856 19.26 40.346C19.321 40.3126 19.3901 40.2914 19.4641 40.2861C19.7398 40.2661 19.9794 40.4733 19.9993 40.7487C20.0192 41.0241 19.8119 41.2635 19.5363 41.2835C19.5257 41.2842 19.5152 41.2846 19.5048 41.2847C19.7629 41.2868 19.9803 41.4869 19.9993 41.7487C20.0192 42.0241 19.8119 42.2635 19.5363 42.2835C19.5257 42.2842 19.5152 42.2846 19.5048 42.2847C19.7629 42.2868 19.9803 42.4869 19.9993 42.7487C20.0002 42.7608 20.0006 42.7728 20.0006 42.7847C20.2608 42.7845 20.4806 42.9854 20.4996 43.2487C20.5004 43.2592 20.5008 43.2697 20.5009 43.2801C20.5031 43.0222 20.7033 42.805 20.9652 42.7861C21.2409 42.7661 21.4805 42.9733 21.5004 43.2487C21.5011 43.2592 21.5016 43.2697 21.5017 43.2801C21.5038 43.0222 21.704 42.805 21.966 42.7861C22.2416 42.7661 22.4812 42.9733 22.5011 43.2487C22.5019 43.2592 22.5023 43.2697 22.5024 43.2801C22.5045 43.0222 22.7048 42.805 22.9667 42.7861C23.2423 42.7661 23.4819 42.9733 23.5019 43.2487C23.5083 43.3384 23.4907 43.4243 23.4545 43.5H24.0521C24.026 43.4453 24.0095 43.3849 24.0048 43.3208C23.9849 43.0454 24.1922 42.806 24.4678 42.7861C24.7434 42.7661 24.983 42.9733 25.003 43.2487C25.0094 43.3384 24.9918 43.4243 24.9556 43.5H38.5282C42.6734 43.5 46.0337 40.1421 46.0337 36V9C46.0337 4.85787 42.6734 1.5 38.5282 1.5H8.50624ZM17.5 40.7487C17.4881 40.7496 17.4761 40.75 17.464 40.75C17.464 41.0261 17.2399 41.25 16.9636 41.25C16.844 41.25 16.7342 41.2081 16.6482 41.1381C16.6634 41.2039 16.6785 41.2675 16.6935 41.329C16.7714 41.279 16.8641 41.25 16.9636 41.25C17.2399 41.25 17.464 41.4739 17.464 41.75C17.464 41.5125 17.6296 41.3138 17.8517 41.2627C17.6604 41.2037 17.5154 41.0324 17.5001 40.8208C17.4983 40.7965 17.4983 40.7724 17.5 40.7487ZM19.2053 41.1887C19.134 41.2278 19.0521 41.25 18.9651 41.25C18.74 41.25 18.5497 41.1016 18.4868 40.8973C18.4443 41.0813 18.2996 41.2289 18.1116 41.272C18.3161 41.3349 18.4647 41.5251 18.4647 41.75C18.4647 41.7621 18.4643 41.7741 18.4634 41.7861C18.4755 41.7852 18.4875 41.7847 18.4995 41.7847C18.4992 41.5248 18.7003 41.3051 18.9638 41.2861C19.0675 41.2786 19.1662 41.3032 19.25 41.3516C19.3135 41.3149 19.3861 41.2917 19.4641 41.2861C19.4747 41.2853 19.4852 41.2849 19.4957 41.2848C19.388 41.2839 19.2874 41.2486 19.2053 41.1887ZM16.9636 42.25L16.9553 42.2499L16.9643 42.2756C16.9638 42.267 16.9636 42.2585 16.9636 42.25ZM22.4538 43.5C22.4845 43.4358 22.5018 43.3643 22.5024 43.2894C22.5025 43.2948 22.5026 43.3002 22.5029 43.3056C22.5031 43.3107 22.5034 43.3157 22.5037 43.3208C22.5084 43.3849 22.5249 43.4453 22.551 43.5H22.4538ZM21.5503 43.5C21.5242 43.4453 21.5076 43.3849 21.503 43.3208C21.5022 43.3103 21.5018 43.2998 21.5017 43.2894C21.5011 43.3643 21.4837 43.4358 21.453 43.5H21.5503ZM19.0359 42.2835C19.114 42.2778 19.1866 42.2546 19.2501 42.2179C19.3229 42.2599 19.4068 42.284 19.4957 42.2848C19.4912 42.2848 19.4867 42.2849 19.4821 42.2851C19.4762 42.2853 19.4702 42.2856 19.4641 42.2861C19.3861 42.2917 19.3135 42.3149 19.25 42.3516C19.1772 42.3096 19.0931 42.2854 19.0042 42.2847C19.0147 42.2846 19.0253 42.2842 19.0359 42.2835ZM18.4995 42.7894C18.4968 42.5274 18.6987 42.3052 18.9638 42.2861C18.9774 42.2851 18.9909 42.2846 19.0042 42.2847L18.9999 42.2848C19.0001 42.5447 18.7991 42.7644 18.5356 42.7835C18.5235 42.7843 18.5114 42.7848 18.4995 42.7848L18.4995 42.7894ZM18.4995 42.7894L18.4997 42.8007C18.5 42.8074 18.5003 42.8141 18.5008 42.8208C18.5088 42.9316 18.5524 43.0314 18.6196 43.1098C18.5553 43.0882 18.4915 43.0657 18.428 43.0424C18.4728 42.968 18.4987 42.8813 18.4995 42.7894ZM19.2501 43.2179C19.2163 43.2374 19.18 43.2531 19.1416 43.2644C19.2613 43.2951 19.3822 43.323 19.5042 43.3479C19.5031 43.339 19.5022 43.3299 19.5015 43.3208C19.5006 43.3087 19.5002 43.2967 19.5002 43.2848C19.4097 43.2849 19.3241 43.2606 19.2501 43.2179ZM20.5429 43.4854C20.5157 43.4837 20.4885 43.4819 20.4614 43.4799C20.4864 43.421 20.5004 43.3566 20.501 43.2894C20.5011 43.2998 20.5015 43.3103 20.5023 43.3208C20.5065 43.3792 20.5206 43.4346 20.5429 43.4854ZM17.9991 42.2847C17.9991 42.2726 17.9995 42.2606 18.0004 42.2487C17.9885 42.2496 17.9764 42.25 17.9643 42.25C17.9643 42.2621 17.9639 42.2741 17.9631 42.2861C17.9752 42.2852 17.9872 42.2847 17.9991 42.2847ZM25.5187 29.5H15.5335C15.5267 29.1714 15.5212 28.8361 15.5171 28.494C15.4642 24.1204 15.784 20.8613 16.2009 18.5707C16.6215 16.2599 17.133 14.979 17.4311 14.5238C17.4623 14.4762 17.4843 14.4253 17.4976 14.3731C18.5469 13.8158 19.7442 13.5 21.0154 13.5H25.5187C27.0534 13.5 28.4805 13.9603 29.6693 14.7502C29.8545 15.0409 30.1265 15.6127 30.3795 16.535C30.6921 17.6741 30.9647 19.3077 31.0171 21.5119C31.0691 23.6971 30.7547 25.3098 30.3543 26.429C29.9486 27.5633 29.4666 28.1595 29.2146 28.3552C29.1231 28.4263 29.0631 28.5227 29.0367 28.6268C27.9874 29.1842 26.7899 29.5 25.5187 29.5Z" fill="#01746D"/>
</g>
</svg>
